<?xml version="1.0" standalone="no"?>
<!DOCTYPE svg PUBLIC "-//W3C//DTD SVG 20010904//EN"
 "http://www.w3.org/TR/2001/REC-SVG-20010904/DTD/svg10.dtd">
<svg version="1.0" xmlns="http://www.w3.org/2000/svg"
 width="811.000000pt" height="811.000000pt" viewBox="0 0 811.000000 811.000000"
 preserveAspectRatio="xMidYMid meet">
<metadata>
Created by potrace 1.14, written by Peter Selinger 2001-2017
</metadata>
<g transform="translate(0.000000,811.000000) scale(0.100000,-0.100000)"
fill="#000000" stroke="none">
<path d="M2478 7215 c-2 -1 -37 -5 -78 -9 -69 -6 -136 -17 -185 -29 -11 -3
-41 -10 -67 -16 -128 -29 -376 -125 -546 -210 -199 -100 -471 -300 -645 -476
-171 -172 -305 -387 -362 -580 -22 -73 -28 -114 -30 -221 -2 -72 0 -148 5
-170 5 -21 11 -57 15 -79 8 -52 66 -225 101 -300 28 -60 138 -237 165 -265 8
-8 39 -46 71 -85 113 -140 321 -333 477 -443 36 -25 76 -54 89 -63 l22 -17
-87 -63 c-352 -250 -609 -518 -719 -746 -34 -70 -84 -205 -104 -278 -5 -16
-17 -61 -28 -100 -49 -169 -66 -284 -65 -450 0 -171 13 -265 58 -415 117 -390
339 -685 710 -941 198 -137 487 -245 765 -285 194 -28 535 -25 675 6 22 5 56
12 75 15 129 21 375 101 550 177 263 116 462 235 1016 613 11 8 27 -3 67 -45
115 -122 280 -305 383 -426 126 -147 136 -159 162 -196 24 -32 39 -41 122 -68
99 -31 124 -36 242 -49 80 -8 235 -7 313 3 28 3 70 9 95 12 25 3 106 17 180
31 74 14 146 27 160 29 52 10 246 55 276 65 17 5 40 11 50 13 21 4 94 24 199
55 39 11 81 22 95 25 14 3 72 17 130 31 92 23 131 32 225 50 65 13 330 55 385
61 36 4 76 8 90 9 14 2 43 4 65 5 l40 2 -35 10 c-365 108 -613 246 -1010 567
-131 105 -343 282 -360 301 -3 3 -41 36 -85 75 -44 38 -102 90 -130 116 -155
143 -220 205 -322 304 l-113 110 37 41 c111 120 251 211 408 267 222 79 334
89 458 42 67 -25 196 -60 252 -69 99 -15 138 -19 238 -21 62 -1 143 4 181 11
225 43 437 242 481 449 45 211 -41 505 -192 659 -126 130 -285 187 -503 181
-58 -1 -125 -8 -150 -15 -25 -7 -52 -14 -61 -15 -25 -5 -118 -46 -179 -79
-153 -83 -397 -311 -598 -561 -62 -77 -118 -147 -125 -155 -28 -32 -221 -305
-306 -434 -50 -75 -93 -137 -96 -137 -12 -1 -85 64 -85 75 0 11 24 74 247 666
158 417 173 478 168 655 -9 264 -70 382 -239 461 -110 50 -182 64 -321 60
-131 -4 -131 -4 -224 -36 -200 -67 -317 -235 -327 -466 -5 -128 29 -226 134
-389 58 -90 104 -146 172 -209 95 -89 111 -109 146 -181 39 -80 80 -236 89
-340 4 -38 4 -68 2 -65 -277 275 -535 523 -676 650 -46 41 -89 80 -95 85 -39
35 -169 147 -211 181 -27 22 -151 123 -275 223 -124 101 -241 196 -260 212
-313 257 -617 491 -925 714 -351 254 -499 370 -628 494 -37 36 -71 68 -75 71
-4 3 -36 39 -71 79 -168 197 -264 415 -248 564 7 73 41 157 83 205 120 141
405 273 664 309 19 2 59 8 89 12 55 9 337 6 403 -3 33 -4 109 -18 173 -31 157
-33 342 -151 365 -233 29 -108 -4 -166 -161 -281 -92 -67 -158 -145 -204 -238
-53 -108 -98 -291 -98 -398 0 -122 30 -295 65 -378 30 -69 151 -230 236 -314
99 -97 169 -135 305 -167 137 -32 171 -36 269 -36 100 -1 277 40 313 72 5 4
15 8 22 8 25 0 153 92 193 138 38 44 66 95 103 187 68 167 63 373 -13 590
-133 374 -332 649 -611 840 -96 66 -336 185 -484 240 -139 52 -314 100 -440
120 -22 4 -49 9 -60 11 -70 12 -129 16 -282 19 -95 1 -173 2 -175 0z m-632
-3198 c87 -67 96 -74 218 -178 202 -171 335 -275 533 -416 351 -249 538 -405
943 -788 162 -154 633 -626 628 -630 -18 -18 -332 -26 -453 -12 -92 11 -128
16 -155 22 -14 3 -36 7 -49 10 -71 13 -210 52 -310 87 -116 40 -362 145 -416
178 -16 10 -57 32 -90 50 -175 93 -427 283 -604 455 -174 170 -262 295 -339
481 -101 246 -118 416 -60 609 18 63 73 185 82 185 2 0 35 -24 72 -53z"/>
<path d="M6820 6129 c-150 -24 -300 -173 -300 -299 0 -54 23 -138 78 -279 33
-87 40 -116 39 -168 -2 -69 3 -77 22 -36 38 83 106 136 230 178 91 31 131 55
167 103 41 53 52 76 72 156 19 74 20 95 8 161 -17 86 -86 169 -151 180 -57 10
-120 11 -165 4z"/>
<path d="M5677 6064 c-281 -54 -419 -206 -421 -464 0 -143 48 -255 162 -373
94 -97 211 -186 312 -237 85 -43 144 -96 178 -160 42 -80 77 -268 75 -405 -1
-61 -8 -100 -38 -235 -9 -39 147 278 216 439 72 168 125 319 144 411 12 56 16
88 30 195 40 307 19 480 -73 625 -70 111 -164 178 -283 200 -84 17 -227 18
-302 4z"/>
<path d="M7047 5348 c-189 -25 -398 -241 -576 -595 -33 -67 -61 -124 -61 -127
0 -3 -11 -29 -24 -58 -41 -89 -66 -150 -66 -160 0 -6 20 16 43 49 24 32 61 73
83 90 94 74 239 134 309 127 17 -1 64 -14 105 -28 96 -32 115 -35 227 -41 103
-5 169 10 237 52 99 63 152 142 163 244 11 106 -46 238 -148 339 -94 92 -178
123 -292 108z"/>
</g>
</svg>
